<svg width="14" height="8" viewBox="0 0 14 8" fill="none" xmlns="http://www.w3.org/2000/svg">
<path fill-rule="evenodd" clip-rule="evenodd" d="M7.70701 7.7071C7.51948 7.89457 7.26517 7.99989 7.00001 7.99989C6.73484 7.99989 6.48054 7.89457 6.29301 7.7071L0.636007 2.0501C0.540497 1.95785 0.464315 1.84751 0.411906 1.7255C0.359497 1.6035 0.331911 1.47228 0.330757 1.3395C0.329603 1.20672 0.354905 1.07504 0.405186 0.952145C0.455467 0.829249 0.52972 0.717596 0.623612 0.623704C0.717505 0.529811 0.829157 0.455558 0.952053 0.405277C1.07495 0.354996 1.20663 0.329694 1.33941 0.330848C1.47219 0.332002 1.60341 0.359588 1.72541 0.411997C1.84742 0.464406 1.95776 0.540588 2.05001 0.636098L7.00001 5.5861L11.95 0.636098C12.1386 0.45394 12.3912 0.353146 12.6534 0.355424C12.9156 0.357703 13.1664 0.462872 13.3518 0.64828C13.5372 0.833688 13.6424 1.0845 13.6447 1.3467C13.647 1.60889 13.5462 1.8615 13.364 2.0501L7.70701 7.7071Z" fill="#111112"/>
</svg>
