<svg width="17" height="18" viewBox="0 0 17 18" fill="none" xmlns="http://www.w3.org/2000/svg">
<path id="Vector" d="M15.7884 17.5832C6.9019 17.5957 0.157144 10.7707 0.166514 1.9613C0.166514 1.38525 0.633184 0.916504 1.20818 0.916504H3.95818C4.4738 0.916504 4.91235 1.29567 4.98839 1.80609C5.16975 3.0301 5.52581 4.22176 6.0457 5.34463L6.153 5.57588C6.225 5.73149 6.2405 5.90738 6.1968 6.0732C6.1531 6.239 6.0528 6.3844 5.91339 6.4842C5.06131 7.0925 4.73631 8.3165 5.39985 9.2707C6.2321 10.4686 7.2811 11.5186 8.479 12.3509C9.4342 13.0134 10.6582 12.6884 11.2655 11.8373C11.3652 11.6975 11.5107 11.5969 11.6767 11.5529C11.8428 11.509 12.019 11.5245 12.1748 11.5967L12.4051 11.703C13.528 12.2238 14.7196 12.58 15.9436 12.7613C16.454 12.8373 16.8332 13.2759 16.8332 13.7925V16.5415C16.8332 16.6784 16.8062 16.8139 16.7538 16.9404C16.7014 17.0668 16.6246 17.1817 16.5277 17.2784C16.4309 17.3752 16.3159 17.4519 16.1894 17.5042C16.0629 17.5565 15.9274 17.5833 15.7905 17.5832H15.7884Z" fill="#1E1E20"/>
</svg>
