<svg width="24" height="22" viewBox="0 0 24 22" fill="none" xmlns="http://www.w3.org/2000/svg">
<g id="material-symbols:search">
<path id="Vector" d="M19.6 19.0357L13.3 13.4107C12.8 13.7679 12.225 14.0506 11.575 14.2589C10.925 14.4673 10.2333 14.5714 9.5 14.5714C7.68333 14.5714 6.146 14.0095 4.888 12.8857C3.63 11.7619 3.00067 10.3893 3 8.76787C3 7.14584 3.62933 5.77322 4.888 4.65001C6.14667 3.52679 7.684 2.96489 9.5 2.96429C11.3167 2.96429 12.854 3.5262 14.112 4.65001C15.37 5.77382 15.9993 7.14644 16 8.76787C16 9.42263 15.8833 10.0402 15.65 10.6205C15.4167 11.2009 15.1 11.7143 14.7 12.1607L21 17.7857L19.6 19.0357ZM9.5 12.7857C10.75 12.7857 11.8127 12.3949 12.688 11.6134C13.5633 10.8319 14.0007 9.88334 14 8.76787C14 7.65179 13.5623 6.70298 12.687 5.92144C11.8117 5.13989 10.7493 4.74941 9.5 4.75001C8.25 4.75001 7.18733 5.14078 6.312 5.92233C5.43667 6.70388 4.99933 7.65239 5 8.76787C5 9.88394 5.43767 10.8327 6.313 11.6143C7.18833 12.3958 8.25067 12.7863 9.5 12.7857Z" fill="#4B4B4D"/>
</g>
</svg>
