<svg width="21" height="22" viewBox="0 0 21 22" fill="none" xmlns="http://www.w3.org/2000/svg">
<path id="Vector" d="M15.0418 13.3335C15.1252 12.646 15.1877 11.9585 15.1877 11.2502C15.1877 10.5418 15.1252 9.8543 15.0418 9.1668H18.5627C18.7293 9.8335 18.8335 10.5314 18.8335 11.2502C18.8335 11.9689 18.7293 12.6668 18.5627 13.3335H15.0418ZM13.1981 19.1252C13.8231 17.9689 14.3022 16.7189 14.6356 15.4168H17.7085C16.6993 17.1546 15.0982 18.471 13.1981 19.1252ZM12.9377 13.3335H8.0627C7.9585 12.646 7.896 11.9585 7.896 11.2502C7.896 10.5418 7.9585 9.8439 8.0627 9.1668H12.9377C13.0314 9.8439 13.1043 10.5418 13.1043 11.2502C13.1043 11.9585 13.0314 12.646 12.9377 13.3335ZM10.5002 19.5418C9.6356 18.2918 8.9377 16.9064 8.5106 15.4168H12.4897C12.0627 16.9064 11.3647 18.2918 10.5002 19.5418ZM6.3335 7.0835H3.29183C4.29064 5.34101 5.89057 4.02254 7.79183 3.37516C7.16683 4.53141 6.69808 5.78141 6.3335 7.0835ZM3.29183 15.4168H6.3335C6.69808 16.7189 7.16683 17.9689 7.79183 19.1252C5.89456 18.4706 4.29688 17.154 3.29183 15.4168ZM2.43766 13.3335C2.271 12.6668 2.16683 11.9689 2.16683 11.2502C2.16683 10.5314 2.271 9.8335 2.43766 9.1668H5.9585C5.87516 9.8543 5.81266 10.5418 5.81266 11.2502C5.81266 11.9585 5.87516 12.646 5.9585 13.3335H2.43766ZM10.5002 2.94808C11.3647 4.19808 12.0627 5.59391 12.4897 7.0835H8.5106C8.9377 5.59391 9.6356 4.19808 10.5002 2.94808ZM17.7085 7.0835H14.6356C14.3096 5.79335 13.8268 4.54797 13.1981 3.37516C15.1147 4.03141 16.7085 5.35433 17.7085 7.0835ZM10.5002 0.833496C4.73975 0.833496 0.0834961 5.521 0.0834961 11.2502C0.0834961 14.0128 1.18096 16.6624 3.13447 18.6159C4.10174 19.5831 5.25007 20.3504 6.51388 20.8739C7.77768 21.3974 9.1322 21.6668 10.5002 21.6668C13.2628 21.6668 15.9124 20.5694 17.8659 18.6159C19.8194 16.6624 20.9168 14.0128 20.9168 11.2502C20.9168 9.8822 20.6474 8.5277 20.1239 7.26388C19.6004 6.00007 18.8331 4.85174 17.8659 3.88447C16.8986 2.91719 15.7503 2.1499 14.4864 1.62642C13.2226 1.10293 11.8681 0.833496 10.5002 0.833496Z" fill="#1E1E20"/>
</svg>
